<svg id="Layer_1" data-name="Layer 1" xmlns="http://www.w3.org/2000/svg" viewBox="0 0 192 192"><title>DPL-logo-black</title><path d="M177.61,167.12,127.83,32h10A6.27,6.27,0,0,0,144,26V14a6.27,6.27,0,0,0-6.17-6h-84A5.75,5.75,0,0,0,48,14V26a5.75,5.75,0,0,0,5.83,6H54V14h83.84a.34.34,0,0,1,.16.24V25.76a.32.32,0,0,1-.17.24h-18.6l3,8.07,22.71,61.65C108.31,92.7,104.69,65,58.42,64l11-30,3-8.07H60v6h3.83L52,64.09h0L38.42,101,14.05,167.12a15.46,15.46,0,0,0-1,6.57,14.06,14.06,0,0,0,.22,1.47C14.37,180.42,19,184,25.84,184h140C175.77,184,181.05,176.44,177.61,167.12ZM128,112a16,16,0,1,1-16,16A16,16,0,0,1,128,112Zm-20,48a12,12,0,1,1-12-12A12,12,0,0,1,108,160ZM80,88a24,24,0,1,1-24,24A24,24,0,0,1,80,88Z"/></svg>