<svg id="Layer_1" data-name="Layer 1" xmlns="http://www.w3.org/2000/svg" xmlns:xlink="http://www.w3.org/1999/xlink" viewBox="0 0 192 192"><defs><style>.cls-1{fill:none;clip-rule:evenodd;}.cls-2,.cls-3,.cls-5,.cls-7,.cls-8,.cls-9{fill-rule:evenodd;}.cls-2,.cls-7{opacity:0.38;}.cls-2{fill:url(#New_Gradient_Swatch_4);}.cls-3{fill:url(#New_Gradient_Swatch_2);}.cls-4,.cls-5{fill:#fff;}.cls-6{clip-path:url(#clip-path);}.cls-7{fill:url(#New_Gradient_Swatch_1);}.cls-8{opacity:0.12;fill:url(#New_Gradient_Swatch_1-2);}.cls-9{opacity:0.5;fill:url(#New_Gradient_Swatch_3);}</style><linearGradient id="New_Gradient_Swatch_4" x1="44.9" y1="12.54" x2="116.99" y2="187.36" gradientUnits="userSpaceOnUse"><stop offset="0" stop-opacity="0.12"/><stop offset="1" stop-opacity="0.38"/></linearGradient><linearGradient id="New_Gradient_Swatch_2" x1="70.01" y1="92.78" x2="98.5" y2="180.68" gradientUnits="userSpaceOnUse"><stop offset="0" stop-color="#6e54a3"/><stop offset="1" stop-color="#53407a"/></linearGradient><clipPath id="clip-path"><path class="cls-1" d="M53.83,8A5.75,5.75,0,0,0,48,14V26a5.75,5.75,0,0,0,5.83,6h10L14.05,167.12C10.62,176.44,15.89,184,25.84,184h140c10,0,15.23-7.56,11.79-16.88L127.83,32h10A6.27,6.27,0,0,0,144,26V14a6.27,6.27,0,0,0-6.17-6Z"/></clipPath><linearGradient id="New_Gradient_Swatch_1" x1="95.67" y1="41.94" x2="132" y2="138.6" gradientUnits="userSpaceOnUse"><stop offset="0" stop-opacity="0.38"/><stop offset="1" stop-opacity="0"/></linearGradient><linearGradient id="New_Gradient_Swatch_1-2" x1="95.15" y1="48.17" x2="129.79" y2="143.34" xlink:href="#New_Gradient_Swatch_1"/><linearGradient id="New_Gradient_Swatch_3" x1="45.74" y1="101.98" x2="71.2" y2="33.48" gradientUnits="userSpaceOnUse"><stop offset="0" stop-color="#fff" stop-opacity="0"/><stop offset="1" stop-color="#fff"/></linearGradient></defs><title>DPL-logo-color</title><path class="cls-2" d="M53.83,8A5.75,5.75,0,0,0,48,14V26a5.75,5.75,0,0,0,5.83,6h10L14.05,167.12C10.62,176.44,15.89,184,25.84,184h140c10,0,15.23-7.56,11.79-16.88L127.83,32h10A6.27,6.27,0,0,0,144,26V14a6.27,6.27,0,0,0-6.17-6Z"/><path class="cls-3" d="M151.41,96c-43.58-.1-44.15-32-95.58-32-1.28,0-2.56,0-3.82.08l-38,103C10.61,176.44,15.89,184,25.84,184h140c9.94,0,15.22-7.56,11.79-16.88Z"/><circle class="cls-4" cx="80" cy="112" r="24"/><path class="cls-5" d="M128,112a16,16,0,1,1-16,16,16,16,0,0,1,16-16"/><path class="cls-5" d="M96,148a12,12,0,1,1-12,12,12,12,0,0,1,12-12"/><polygon class="cls-5" points="118 14 60 14 54 14 54 20 54 32 60 32 60 20 118 20 118 14"/><g class="cls-6"><polygon class="cls-7" points="64 32 120 32 177 184 121 184 64 32"/><polygon class="cls-8" points="49.79 32 127.79 32 184.79 186 119.79 186 49.79 32"/></g><polygon class="cls-9" points="76 32 68 32 11 184 19 184 76 32"/></svg>