<svg id="Layer_1" data-name="Layer 1" xmlns="http://www.w3.org/2000/svg" viewBox="0 0 1810 380"><title>DPL Mark-black copy</title><path d="M340.53,258.42V125.94q23.81-1.72,45.89-1.73,28,0,39.26,15.07t11.24,52.9q0,37.83-11.24,52.89t-39.26,15.08Q364.73,260.15,340.53,258.42ZM353,135.73v112.9q19.2.38,33.41.38,20.93,0,29.09-12.48t8.16-44.35q0-31.87-8.16-44.45t-29.09-12.58Q383,135.15,353,135.73Z"/><path d="M516.27,217.91H469.8q1.15,18.42,8.45,25.34t23.81,6.91a250.78,250.78,0,0,0,32.06-2.3l1.35,8.25q-11.91,4.62-35.14,4.61-23.43,0-33.31-11.23t-9.89-37.92q0-26.88,9.6-37.73T498.8,163q19.77,0,29.18,7.2t9.6,21.8Q538,217.91,516.27,217.91Zm-46.47-9.6h43.59q12.29,0,11.9-16.13-.19-9.8-6.33-14.21t-19.59-4.42q-16.32,0-22.85,7.59T469.8,208.31Z"/><path d="M640.93,165.49l-35.52,89.86a4.48,4.48,0,0,1-4.61,3.07H589.48a4.48,4.48,0,0,1-4.61-3.07l-35.52-89.86h13.06l25.34,67.2c.77,1.92,1.82,4.8,3.17,8.64s2.33,6.53,3,8.06h2.5l6.33-16.89,25.35-67Z"/><path d="M660,258.42V125.94q15.93-1.53,44.35-1.54,23.22,0,32.16,8.55t8.93,32q0,23.43-8.74,32t-31,8.55q-16.7,0-33.21-1.54v54.53Zm12.48-63.94h31.68q16.13-.18,22.27-6.24t6.14-23.33q0-17.46-6.14-23.61t-22.27-6.15q-16.33,0-31.68.39Z"/><path d="M771.16,174q9.69-11,33.12-11t33,11q9.6,11.06,9.6,37.92t-9.6,37.83q-9.62,10.93-33,10.94t-33.12-11q-9.69-11-9.69-37.73Q761.47,185.08,771.16,174Zm56.55,7.78q-6.54-8.25-23.43-8.26t-23.42,8.26q-6.54,8.25-6.53,30.14t6.53,30.15q6.52,8.25,23.42,8.25t23.43-8.25q6.52-8.25,6.52-30.15T827.71,181.81Z"/><path d="M872.5,126.32h5.57c2.68,0,4,1.35,4,4v11.14c0,2.69-1.35,4-4,4H872.5q-4,0-4-4V130.35C868.47,127.67,869.81,126.32,872.5,126.32Zm8.83,132.1h-12.1V165.49h12.1Z"/><path d="M917.63,165.49l1,15.36Q941.83,163,961.6,163q25,0,25,25.54v69.89H974.47V191.79c0-6.52-1.25-11.2-3.75-14s-6.62-4.23-12.38-4.23a41.16,41.16,0,0,0-17,3.84,172.58,172.58,0,0,0-21.6,12.29v68.74H907.46V165.49Z"/><path d="M1061.62,248.82l1.53,9.21a98.6,98.6,0,0,1-19.39,1.92q-23,0-23-23.23V175.09h-16.9v-8.64l16.9-1V137.27h12.09v28.22h31.49v9.6h-31.49v60.29q0,13.44,13.64,13.44Z"/><path d="M1178,200.05l-28.22-6q-14-2.88-20-11.43t-6-24.48q0-11.52,2.3-18.52a18.45,18.45,0,0,1,8.07-10.47,34.47,34.47,0,0,1,12.67-4.51,118.71,118.71,0,0,1,18.82-.86,214.62,214.62,0,0,1,38.2,3.07l-1,9.21q-22.65-1.14-36.67-1.15-9.4,0-13.82.48a23.91,23.91,0,0,0-8.74,2.79,11.43,11.43,0,0,0-5.76,7.1,48.07,48.07,0,0,0-1.44,13.25q0,11.91,4.13,17.18t14.11,7.2l27.65,5.76q14.79,2.88,20.83,11.43t6,24.86q0,11.52-2.5,18.62a20.12,20.12,0,0,1-8.25,10.76,35.19,35.19,0,0,1-13.06,4.89,118.54,118.54,0,0,1-19.2,1.25,262,262,0,0,1-40.32-2.88l.77-9.41q23.8,1.15,39.94,1.15,17.46-.18,23.61-4.8t6.15-19.77q0-12.48-4.13-17.67T1178,200.05Z"/><path d="M1274.06,248.82l1.53,9.21A98.6,98.6,0,0,1,1256.2,260q-23,0-23-23.23V175.09h-16.89v-8.64l16.89-1V137.27h12.1v28.22h31.49v9.6h-31.49v60.29q0,13.44,13.63,13.44Z"/><path d="M1371.38,165.49v92.93h-9.6l-1-14.59q-21.51,16.89-41.28,16.89-25.15,0-25.15-25.34V165.49h12.1v66.62c0,6.41,1.34,11,4,13.83s7,4.22,13,4.22a38,38,0,0,0,15.75-3.55,140,140,0,0,0,20-11.81V165.49Z"/><path d="M1465.82,258.42l-1.34-14.4q-19,16.7-37.25,16.7-17.67,0-25.44-11.71T1394,211.76q0-26.49,8.26-37.63t26.5-11.14q17.65,0,35.13,9a163.11,163.11,0,0,1-.77-18.24V124h12.1v134.4Zm-2.69-23.23V180.47q-19.77-6.72-31.87-6.72-13.63,0-19.1,8.16t-5.47,29.66q0,21.7,5.37,30.05t18.63,8.35a34.29,34.29,0,0,0,14.78-3.26Q1452.38,243.44,1463.13,235.19Z"/><path d="M1504.78,126.32h5.56c2.69,0,4,1.35,4,4v11.14q0,4-4,4h-5.56q-4,0-4-4V130.35C1500.75,127.67,1502.09,126.32,1504.78,126.32Zm8.83,132.1h-12.1V165.49h12.1Z"/><path d="M1545.56,174q9.69-11,33.12-11t33,11q9.6,11.06,9.6,37.92t-9.6,37.83q-9.6,10.93-33,10.94t-33.12-11q-9.7-11-9.7-37.73Q1535.86,185.08,1545.56,174Zm56.54,7.78q-6.52-8.25-23.42-8.26t-23.43,8.26q-6.52,8.25-6.53,30.14t6.53,30.15q6.52,8.25,23.43,8.25t23.42-8.25q6.53-8.25,6.53-30.15T1602.1,181.81Z"/><path d="M1688.27,219.06l-28.42-5.38q-10.95-2.1-15.84-8t-4.89-17.37q0-15.75,8-20.64t27.75-4.71a300.47,300.47,0,0,1,38,2.88l-1.15,8.84q-23-1.16-35.33-1.16-15.36-.18-20.35,2.21t-5,12.58q0,7.88,3.26,10.94t11,4.61l28.6,5.38q11.14,2.29,16.33,8t5.18,17q0,16.32-8.74,21.31t-29.85,5a237.1,237.1,0,0,1-35.52-2.5l1-9q15.16,1.35,32.44,1.15,17.1-.18,22.95-3.17t5.86-12.76q0-7.5-3.65-10.56T1688.27,219.06Z"/><path d="M272.27,261.12,222.49,126h10a6.26,6.26,0,0,0,6.17-6V108a6.26,6.26,0,0,0-6.17-6h-84a5.76,5.76,0,0,0-5.83,6v12a5.76,5.76,0,0,0,5.83,6h.17V108H232.5a.34.34,0,0,1,.16.24v11.52a.32.32,0,0,1-.17.24h-18.6l3,8.07,22.72,61.65C203,186.7,199.35,159,153.08,158l11-30,3-8.07H154.66v6h3.83l-11.82,32.09h0L133.08,195l-24.37,66.16a15.46,15.46,0,0,0-1,6.57,14.06,14.06,0,0,0,.22,1.47c1.11,5.26,5.74,8.84,12.58,8.84h140C270.43,278,275.71,270.44,272.27,261.12ZM222.66,206a16,16,0,1,1-16,16A16,16,0,0,1,222.66,206Zm-20,48a12,12,0,1,1-12-12A12,12,0,0,1,202.66,254Zm-28-72a24,24,0,1,1-24,24A24,24,0,0,1,174.66,182Z"/></svg>